<?xml version="1.0" encoding="iso-8859-1"?>
<!-- Generator: Adobe Illustrator 19.0.0, SVG Export Plug-In . SVG Version: 6.00 Build 0)  -->
<svg xmlns="http://www.w3.org/2000/svg" xmlns:xlink="http://www.w3.org/1999/xlink" version="1.1" id="Capa_1" x="0px" y="0px" viewBox="0 0 512 512" style="enable-background:new 0 0 512 512;" xml:space="preserve" width="512" height="512">
<g>
	<path d="M306.463,213.415c4.329,0,8.658-3.935,8.658-17.12c0-13.184-4.329-17.119-8.658-17.119s-8.658,3.936-8.658,17.119   C297.805,209.48,302.134,213.415,306.463,213.415z"/>
	<path d="M205.516,148.479c4.329,0,8.658-3.936,8.658-17.121c0-13.184-4.329-17.119-8.658-17.119c-4.329,0-8.658,3.935-8.658,17.119   C196.858,144.543,201.187,148.479,205.516,148.479z"/>
	<path d="M479.716,249.667h-70.06V0H102.323v249.667H32.284L230.514,482H122.656v30h266.666v-30H281.486L479.716,249.667z    M205.516,92.987c20.858,0,36.6,13.971,36.6,38.371c0,24.598-15.742,38.373-36.6,38.373s-36.601-13.774-36.601-38.373   C168.916,106.957,184.658,92.987,205.516,92.987z M286.392,94.955h33.255l-94.06,137.744h-33.255L286.392,94.955z M306.463,157.924   c20.858,0,36.601,13.971,36.601,38.371c0,24.598-15.742,38.372-36.601,38.372c-20.858,0-36.6-13.774-36.6-38.372   C269.862,171.895,285.604,157.924,306.463,157.924z"/>
</g>















</svg>
